<?xml version="1.0" encoding="UTF-8"?>
<svg width="32px" height="32px" viewBox="0 0 32 32" version="1.1" xmlns="http://www.w3.org/2000/svg" xmlns:xlink="http://www.w3.org/1999/xlink">
    <!-- Generator: Sketch 52.4 (67378) - http://www.bohemiancoding.com/sketch -->
    <title>sticker</title>
    <desc>Created with Sketch.</desc>
    <g id="====slice====" stroke="none" stroke-width="1" fill="none" fill-rule="evenodd" fill-opacity="0.9">
        <g id="Artboard" transform="translate(-281.000000, -123.000000)" fill="#000000">
            <g id="Icons/Outlined/sticker" transform="translate(281.000000, 123.000000)">
                <g id="Icons/Tint-Color/Black" transform="translate(2.666667, 2.666667)">
                    <path d="M13.3333333,26.6666667 C5.96953667,26.6666667 0,20.69713 0,13.3333333 C0,5.96953667 5.96953667,0 13.3333333,0 C20.69713,0 26.6666667,5.96953667 26.6666667,13.3333333 C26.6666667,20.69713 20.69713,26.6666667 13.3333333,26.6666667 Z M13.3333333,25.0666667 C19.8134744,25.0666667 25.0666667,19.8134744 25.0666667,13.3333333 C25.0666667,6.85319227 19.8134744,1.6 13.3333333,1.6 C6.85319227,1.6 1.6,6.85319227 1.6,13.3333333 C1.6,19.8134744 6.85319227,25.0666667 13.3333333,25.0666667 Z M5.33333333,14 L21.3333333,14 C21.3333333,18.418278 17.7516113,22 13.3333333,22 C8.91505533,22 5.33333333,18.418278 5.33333333,14 Z M13.3333333,20.4 C16.3154764,20.4 18.8212369,18.3603635 19.5317054,15.6 L7.13496131,15.6 C7.84542978,18.3603635 10.3511902,20.4 13.3333333,20.4 Z M8.66666667,11.3333333 C7.56209717,11.3333333 6.66666667,10.4379028 6.66666667,9.33333333 C6.66666667,8.22876383 7.56209717,7.33333333 8.66666667,7.33333333 C9.77123617,7.33333333 10.6666667,8.22876383 10.6666667,9.33333333 C10.6666667,10.4379028 9.77123617,11.3333333 8.66666667,11.3333333 Z M18,11.3333333 C16.8954305,11.3333333 16,10.4379028 16,9.33333333 C16,8.22876383 16.8954305,7.33333333 18,7.33333333 C19.1045695,7.33333333 20,8.22876383 20,9.33333333 C20,10.4379028 19.1045695,11.3333333 18,11.3333333 Z" id="图标颜色"></path>
                </g>
            </g>
        </g>
    </g>
</svg>