<?xml version="1.0" encoding="UTF-8"?>
<svg width="28px" height="28px" viewBox="0 0 28 28" version="1.1" xmlns="http://www.w3.org/2000/svg" xmlns:xlink="http://www.w3.org/1999/xlink">
    <!-- Generator: Sketch 52.4 (67378) - http://www.bohemiancoding.com/sketch -->
    <title>setting</title>
    <desc>Created with Sketch.</desc>
    <g id="====slice====" stroke="none" stroke-width="1" fill="none" fill-rule="evenodd">
        <g id="Artboard" transform="translate(-145.000000, -82.000000)">
            <g id="Group-2" transform="translate(145.000000, 82.000000)">
                <rect id="Rectangle" fill="#00C777" fill-rule="nonzero" opacity="0" x="0" y="0" width="28" height="28"></rect>
                <g id="Icons/Tint-Color/Black" transform="translate(3.000000, 3.000000)">
                    <path d="M17.2145543,3.06292131 L14.8792622,4.46409659 L14.5500465,4.2895377 C14.1300791,4.06685987 13.6897842,3.88409061 13.2342903,3.7440133 L12.8783234,3.63454336 L12.2180087,0.993284325 C12.1690403,0.797410844 11.9930477,0.66 11.791146,0.66 L10.208854,0.66 C10.0069523,0.66 9.83095972,0.797410844 9.78199135,0.993284325 L9.12167659,3.63454336 L8.76570969,3.7440133 C8.31021584,3.88409061 7.8699209,4.06685987 7.44995353,4.2895377 L7.12073781,4.46409659 L4.78544567,3.06292131 C4.61231633,2.95904371 4.39070666,2.98632511 4.24794055,3.12909121 L3.12909121,4.24794055 C2.98632511,4.39070666 2.95904371,4.61231633 3.06292131,4.78544567 L4.46409659,7.12073781 L4.2895377,7.44995353 C4.06685987,7.8699209 3.88409061,8.31021584 3.7440133,8.76570969 L3.63454336,9.12167659 L0.993284325,9.78199135 C0.797410844,9.83095972 0.66,10.0069523 0.66,10.208854 L0.66,11.791146 C0.66,11.9930477 0.797410844,12.1690403 0.993284325,12.2180087 L3.63454336,12.8783234 L3.7440133,13.2342903 C3.88409061,13.6897842 4.06685987,14.1300791 4.2895377,14.5500465 L4.46409659,14.8792622 L3.06292131,17.2145543 C2.95904371,17.3876837 2.98632511,17.6092933 3.12909121,17.7520594 L4.24794055,18.8709088 C4.39070666,19.0136749 4.61231633,19.0409563 4.78544567,18.9370787 L7.12073781,17.5359034 L7.44995353,17.7104623 C7.8699209,17.9331401 8.31021584,18.1159094 8.76570969,18.2559867 L9.12167659,18.3654566 L9.78199135,21.0067157 C9.83095972,21.2025892 10.0069523,21.34 10.208854,21.34 L11.791146,21.34 C11.9930477,21.34 12.1690403,21.2025892 12.2180087,21.0067157 L12.8783234,18.3654566 L13.2342903,18.2559867 C13.6897842,18.1159094 14.1300791,17.9331401 14.5500465,17.7104623 L14.8792622,17.5359034 L17.2145543,18.9370787 C17.3876837,19.0409563 17.6092933,19.0136749 17.7520594,18.8709088 L18.8709088,17.7520594 C19.0136749,17.6092933 19.0409563,17.3876837 18.9370787,17.2145543 L17.5359034,14.8792622 L17.7104623,14.5500465 C17.9331401,14.1300791 18.1159094,13.6897842 18.2559867,13.2342903 L18.3654566,12.8783234 L21.0067157,12.2180087 C21.2025892,12.1690403 21.34,11.9930477 21.34,11.791146 L21.34,10.208854 C21.34,10.0069523 21.2025892,9.83095972 21.0067157,9.78199135 L18.3654566,9.12167659 L18.2559867,8.76570969 C18.1159094,8.31021584 17.9331401,7.8699209 17.7104623,7.44995353 L17.5359034,7.12073781 L18.9370787,4.78544567 C19.0409563,4.61231633 19.0136749,4.39070666 18.8709088,4.24794055 L17.7520594,3.12909121 C17.6092933,2.98632511 17.3876837,2.95904371 17.2145543,3.06292131 Z" id="图标颜色" stroke="#00C777" stroke-width="1.32"></path>
                    <path d="M11,15 C8.790861,15 7,13.209139 7,11 C7,8.790861 8.790861,7 11,7 C13.209139,7 15,8.790861 15,11 C15,13.209139 13.209139,15 11,15 Z M11,13.8 C12.5463973,13.8 13.8,12.5463973 13.8,11 C13.8,9.4536027 12.5463973,8.2 11,8.2 C9.4536027,8.2 8.2,9.4536027 8.2,11 C8.2,12.5463973 9.4536027,13.8 11,13.8 Z" id="Combined-Shape" fill="#00C777"></path>
                </g>
            </g>
        </g>
    </g>
</svg>